<svg width="24" height="24" viewBox="0 0 24 24" fill="none" xmlns="http://www.w3.org/2000/svg">
<path d="M7 8.6H8.22222M8.22222 8.6H18M8.22222 8.6V17.7C8.22222 18.0448 8.35099 18.3754 8.5802 18.6192C8.80941 18.863 9.12029 19 9.44444 19H15.5556C15.8797 19 16.1906 18.863 16.4198 18.6192C16.649 18.3754 16.7778 18.0448 16.7778 17.7V8.6M10.0556 8.6V7.3C10.0556 6.95522 10.1843 6.62456 10.4135 6.38076C10.6427 6.13696 10.9536 6 11.2778 6H13.7222C14.0464 6 14.3573 6.13696 14.5865 6.38076C14.8157 6.62456 14.9444 6.95522 14.9444 7.3V8.6M11.2778 11.85V15.75M13.7222 11.85V15.75" stroke="#F5F5F5" stroke-linecap="round" stroke-linejoin="round"/>
</svg>
