<svg width="42" height="42" viewBox="0 0 42 42" fill="none" xmlns="http://www.w3.org/2000/svg">
<rect x="1" y="1" width="40" height="40" rx="20" stroke="#828282"/>
<path d="M24.3333 24.3352L21 21.0019M21 21.0019L17.6666 24.3352M21 21.0019V28.5019M27.9916 26.3269C28.8044 25.8838 29.4465 25.1826 29.8165 24.334C30.1866 23.4855 30.2635 22.5379 30.0351 21.6408C29.8068 20.7436 29.2862 19.9481 28.5555 19.3797C27.8248 18.8113 26.9257 18.5025 26 18.5019H24.95C24.6977 17.5262 24.2276 16.6205 23.5749 15.8527C22.9222 15.0849 22.104 14.4751 21.1817 14.069C20.2594 13.663 19.2571 13.4713 18.2501 13.5084C17.243 13.5455 16.2575 13.8104 15.3676 14.2832C14.4777 14.7561 13.7066 15.4244 13.1122 16.2382C12.5177 17.0519 12.1155 17.9898 11.9358 18.9814C11.756 19.9729 11.8034 20.9923 12.0743 21.9629C12.3452 22.9335 12.8327 23.8301 13.5 24.5852" stroke="white" stroke-linecap="round" stroke-linejoin="round"/>
</svg>
