<svg width="19" height="21" viewBox="0 0 19 21" fill="none" xmlns="http://www.w3.org/2000/svg">
<path d="M12.625 15.7083H17.8333L16.3699 14.2449C15.973 13.848 15.75 13.3097 15.75 12.7484V9.45834C15.75 6.73705 14.0108 4.42197 11.5833 3.56397V3.20833C11.5833 2.05774 10.6506 1.125 9.49999 1.125C8.3494 1.125 7.41666 2.05774 7.41666 3.20833V3.56397C4.98917 4.42197 3.24999 6.73705 3.24999 9.45834V12.7484C3.24999 13.3097 3.02702 13.848 2.63013 14.2449L1.16666 15.7083H6.37499M12.625 15.7083V16.75C12.625 18.4759 11.2259 19.875 9.49999 19.875C7.7741 19.875 6.37499 18.4759 6.37499 16.75V15.7083M12.625 15.7083H6.37499" stroke="#F5F5F5" stroke-width="1.2" stroke-linecap="round" stroke-linejoin="round"/>
</svg>
