<svg width="18" height="19" viewBox="0 0 18 19" fill="none" xmlns="http://www.w3.org/2000/svg">
<path d="M9 7.12359C9 6.53422 8.74714 5.96899 8.29706 5.55224C7.84697 5.13549 7.23652 4.90137 6.6 4.90137H3V13.2347H7.2C7.67739 13.2347 8.13523 13.4103 8.47279 13.7229C8.81036 14.0354 9 14.4593 9 14.9014M9 7.12359V14.9014M9 7.12359C9 6.53422 9.25286 5.96899 9.70294 5.55224C10.153 5.13549 10.7635 4.90137 11.4 4.90137H15V13.2347H10.8C10.3226 13.2347 9.86477 13.4103 9.52721 13.7229C9.18964 14.0354 9 14.4593 9 14.9014" stroke="#F5F5F5" stroke-linecap="round" stroke-linejoin="round"/>
</svg>
