<svg width="23" height="20" viewBox="0 0 23 20" fill="none" xmlns="http://www.w3.org/2000/svg">
<path d="M14.1 7.49139V10.7414C14.1 11.2586 14.3054 11.7546 14.6711 12.1202C15.0368 12.4859 15.5328 12.6914 16.05 12.6914C16.5672 12.6914 17.0632 12.4859 17.4289 12.1202C17.7946 11.7546 18 11.2586 18 10.7414V10.0914C17.9999 8.62436 17.5035 7.2005 16.5916 6.05134C15.6797 4.90217 14.4059 4.09529 12.9772 3.76189C11.5486 3.42848 10.0492 3.58817 8.72278 4.21498C7.3964 4.84179 6.32106 5.89886 5.67162 7.21431C5.02218 8.52976 4.83683 10.0262 5.14572 11.4604C5.4546 12.8945 6.23954 14.182 7.37291 15.1135C8.50629 16.0449 9.92143 16.5656 11.3882 16.5908C12.8551 16.6161 14.2873 16.1443 15.452 15.2524M14.1 10.0914C14.1 11.5273 12.9359 12.6914 11.5 12.6914C10.0641 12.6914 8.90001 11.5273 8.90001 10.0914C8.90001 8.65545 10.0641 7.49139 11.5 7.49139C12.9359 7.49139 14.1 8.65545 14.1 10.0914Z" stroke="#F5F5F5" stroke-linecap="round" stroke-linejoin="round"/>
</svg>
