<svg width="18" height="19" viewBox="0 0 18 19" fill="none" xmlns="http://www.w3.org/2000/svg">
<path d="M9.5 10.2454C10.479 10.2454 11.2727 9.45171 11.2727 8.47266C11.2727 7.49361 10.479 6.69993 9.5 6.69993C8.52095 6.69993 7.72727 7.49361 7.72727 8.47266C7.72727 9.45171 8.52095 10.2454 9.5 10.2454Z" stroke="#F5F5F5" stroke-linecap="round" stroke-linejoin="round"/>
<path d="M13.8727 10.2454C13.7941 10.4236 13.7706 10.6213 13.8054 10.813C13.8401 11.0047 13.9315 11.1816 14.0677 11.3208L14.1032 11.3563C14.2131 11.4661 14.3002 11.5964 14.3597 11.7399C14.4192 11.8833 14.4498 12.0371 14.4498 12.1924C14.4498 12.3477 14.4192 12.5015 14.3597 12.645C14.3002 12.7885 14.2131 12.9188 14.1032 13.0286C13.9934 13.1384 13.8631 13.2256 13.7196 13.2851C13.5761 13.3446 13.4224 13.3752 13.267 13.3752C13.1117 13.3752 12.9579 13.3446 12.8145 13.2851C12.671 13.2256 12.5407 13.1384 12.4309 13.0286L12.3955 12.9931C12.2562 12.8569 12.0793 12.7655 11.8876 12.7307C11.6959 12.696 11.4982 12.7195 11.32 12.7981C11.1452 12.873 10.9962 12.9974 10.8912 13.1559C10.7862 13.3145 10.7298 13.5002 10.7291 13.6904V13.7908C10.7291 14.1043 10.6046 14.4049 10.3829 14.6265C10.1613 14.8481 9.86071 14.9727 9.54727 14.9727C9.23383 14.9727 8.93323 14.8481 8.7116 14.6265C8.48997 14.4049 8.36545 14.1043 8.36545 13.7908V13.7377C8.36088 13.5421 8.29757 13.3524 8.18376 13.1933C8.06994 13.0341 7.91089 12.9129 7.72727 12.8454C7.54904 12.7667 7.35134 12.7433 7.15965 12.778C6.96796 12.8128 6.79108 12.9042 6.65182 13.0404L6.61636 13.0758C6.5066 13.1857 6.37626 13.2729 6.23279 13.3324C6.08932 13.3918 5.93554 13.4224 5.78023 13.4224C5.62492 13.4224 5.47113 13.3918 5.32766 13.3324C5.18419 13.2729 5.05385 13.1857 4.94409 13.0758C4.83421 12.9661 4.74704 12.8357 4.68757 12.6923C4.62809 12.5488 4.59748 12.395 4.59748 12.2397C4.59748 12.0844 4.62809 11.9306 4.68757 11.7871C4.74704 11.6437 4.83421 11.5133 4.94409 11.4036L4.97955 11.3681C5.11577 11.2288 5.20716 11.052 5.24191 10.8603C5.27667 10.6686 5.2532 10.4709 5.17455 10.2927C5.09964 10.1179 4.97526 9.96883 4.81673 9.86384C4.65819 9.75885 4.47242 9.70251 4.28227 9.70175H4.18182C3.86838 9.70175 3.56778 9.57723 3.34615 9.3556C3.12451 9.13397 3 8.83337 3 8.51993C3 8.20649 3.12451 7.90589 3.34615 7.68426C3.56778 7.46262 3.86838 7.33811 4.18182 7.33811H4.235C4.43059 7.33354 4.62028 7.27023 4.7794 7.15641C4.93853 7.0426 5.05974 6.88355 5.12727 6.69993C5.20593 6.5217 5.2294 6.324 5.19464 6.13231C5.15988 5.94062 5.0685 5.76374 4.93227 5.62447L4.89682 5.58902C4.78694 5.47926 4.69977 5.34892 4.64029 5.20545C4.58082 5.06198 4.55021 4.90819 4.55021 4.75288C4.55021 4.59757 4.58082 4.44379 4.64029 4.30032C4.69977 4.15685 4.78694 4.02651 4.89682 3.91675C5.00658 3.80687 5.13692 3.7197 5.28039 3.66022C5.42386 3.60075 5.57765 3.57014 5.73295 3.57014C5.88826 3.57014 6.04205 3.60075 6.18552 3.66022C6.32899 3.7197 6.45933 3.80687 6.56909 3.91675L6.60455 3.9522C6.74381 4.08843 6.92069 4.17981 7.11238 4.21457C7.30407 4.24932 7.50177 4.22586 7.68 4.1472H7.72727C7.90205 4.0723 8.0511 3.94792 8.15609 3.78939C8.26108 3.63085 8.31742 3.44508 8.31818 3.25493V3.15447C8.31818 2.84104 8.44269 2.54044 8.66433 2.3188C8.88596 2.09717 9.18656 1.97266 9.5 1.97266C9.81344 1.97266 10.114 2.09717 10.3357 2.3188C10.5573 2.54044 10.6818 2.84104 10.6818 3.15447V3.20766C10.6826 3.3978 10.7389 3.58358 10.8439 3.74211C10.9489 3.90065 11.098 4.02502 11.2727 4.09993C11.451 4.17859 11.6487 4.20205 11.8403 4.1673C12.032 4.13254 12.2089 4.04116 12.3482 3.90493L12.3836 3.86947C12.4934 3.75959 12.6237 3.67242 12.7672 3.61295C12.9107 3.55348 13.0645 3.52286 13.2198 3.52286C13.3751 3.52286 13.5289 3.55348 13.6723 3.61295C13.8158 3.67242 13.9461 3.75959 14.0559 3.86947C14.1658 3.97923 14.253 4.10957 14.3124 4.25304C14.3719 4.39652 14.4025 4.5503 14.4025 4.70561C14.4025 4.86092 14.3719 5.01471 14.3124 5.15818C14.253 5.30165 14.1658 5.43199 14.0559 5.54175L14.0205 5.5772C13.8842 5.71647 13.7928 5.89335 13.7581 6.08504C13.7233 6.27672 13.7468 6.47443 13.8255 6.65266V6.69993C13.9004 6.8747 14.0247 7.02376 14.1833 7.12875C14.3418 7.23374 14.5276 7.29008 14.7177 7.29084H14.8182C15.1316 7.29084 15.4322 7.41535 15.6539 7.63698C15.8755 7.85862 16 8.15922 16 8.47266C16 8.78609 15.8755 9.08669 15.6539 9.30833C15.4322 9.52996 15.1316 9.65447 14.8182 9.65447H14.765C14.5749 9.65523 14.3891 9.71157 14.2305 9.81656C14.072 9.92155 13.9476 10.0706 13.8727 10.2454Z" stroke="#F5F5F5" stroke-linecap="round" stroke-linejoin="round"/>
</svg>
