<svg width="32" height="32" viewBox="0 0 32 32" fill="none" xmlns="http://www.w3.org/2000/svg">
<path fill-rule="evenodd" clip-rule="evenodd" d="M11.293 13.2926C11.4806 13.1051 11.7349 12.9998 12 12.9998C12.2652 12.9998 12.5195 13.1051 12.707 13.2926L16 16.5856L19.293 13.2926C19.3853 13.1971 19.4956 13.1209 19.6176 13.0685C19.7396 13.0161 19.8709 12.9885 20.0036 12.9873C20.1364 12.9862 20.2681 13.0115 20.391 13.0618C20.5139 13.1121 20.6255 13.1863 20.7194 13.2802C20.8133 13.3741 20.8876 13.4857 20.9379 13.6086C20.9881 13.7315 21.0134 13.8632 21.0123 13.996C21.0111 14.1288 20.9835 14.26 20.9311 14.382C20.8787 14.504 20.8025 14.6143 20.707 14.7066L16.707 18.7066C16.5195 18.8941 16.2652 18.9994 16 18.9994C15.7349 18.9994 15.4806 18.8941 15.293 18.7066L11.293 14.7066C11.1056 14.5191 11.0002 14.2648 11.0002 13.9996C11.0002 13.7344 11.1056 13.4801 11.293 13.2926Z" fill="#F5F5F5"/>
</svg>
