<svg width="18" height="20" viewBox="0 0 18 20" fill="none" xmlns="http://www.w3.org/2000/svg">
<path d="M2.25 9.79561L3.75 8.25336M3.75 8.25336L9 2.85547L14.25 8.25336M3.75 8.25336V15.9646C3.75 16.3905 4.08579 16.7357 4.5 16.7357H6.75M14.25 8.25336L15.75 9.79561M14.25 8.25336V15.9646C14.25 16.3905 13.9142 16.7357 13.5 16.7357H11.25M6.75 16.7357C7.16421 16.7357 7.5 16.3905 7.5 15.9646V12.8801C7.5 12.4542 7.83579 12.109 8.25 12.109H9.75C10.1642 12.109 10.5 12.4542 10.5 12.8801V15.9646C10.5 16.3905 10.8358 16.7357 11.25 16.7357M6.75 16.7357H11.25" stroke="#F5F5F5" stroke-width="1.2" stroke-linecap="round" stroke-linejoin="round"/>
</svg>
