<svg width="23" height="19" viewBox="0 0 23 19" fill="none" xmlns="http://www.w3.org/2000/svg">
<path d="M15.3636 16.9785V15.423C15.3636 14.5978 15.038 13.8065 14.4583 13.2231C13.8787 12.6396 13.0925 12.3118 12.2727 12.3118H6.09091C5.27115 12.3118 4.48496 12.6396 3.90531 13.2231C3.32565 13.8065 3 14.5978 3 15.423V16.9785M20 16.9785V15.423C19.9995 14.7336 19.7715 14.064 19.352 13.5192C18.9324 12.9744 18.3449 12.5853 17.6818 12.413M14.5909 3.07963C15.2558 3.25097 15.8451 3.64017 16.2659 4.18587C16.6867 4.73156 16.9152 5.40272 16.9152 6.09352C16.9152 6.78431 16.6867 7.45547 16.2659 8.00116C15.8451 8.54686 15.2558 8.93606 14.5909 9.1074M12.2727 6.08963C12.2727 7.80785 10.8889 9.20074 9.18182 9.20074C7.47476 9.20074 6.09091 7.80785 6.09091 6.08963C6.09091 4.37141 7.47476 2.97852 9.18182 2.97852C10.8889 2.97852 12.2727 4.37141 12.2727 6.08963Z" stroke="#F5F5F5" stroke-linecap="round" stroke-linejoin="round"/>
</svg>
