<svg width="16" height="14" viewBox="0 0 16 14" fill="none" xmlns="http://www.w3.org/2000/svg">
<path d="M11.3467 13.3164V11.9831C11.3467 11.2758 11.056 10.5976 10.5385 10.0975C10.0211 9.59736 9.31932 9.31641 8.58756 9.31641H3.75911C3.02735 9.31641 2.32556 9.59736 1.80813 10.0975C1.29069 10.5976 1 11.2758 1 11.9831V13.3164M13.2756 5.87015V6.50651L13.6451 6.82469M14.3866 7.64136L14.3004 8.45378C14.2893 8.55955 14.2325 8.65789 14.1413 8.72937C14.0501 8.80085 13.931 8.84027 13.8077 8.83984H12.741C12.6176 8.84027 12.4986 8.80085 12.4074 8.72937C12.3161 8.65789 12.2594 8.55955 12.2483 8.45378L12.1621 7.64136M12.1645 5.37166L12.2507 4.55924C12.2618 4.45383 12.3182 4.35579 12.4089 4.28436C12.4996 4.21294 12.6181 4.17328 12.741 4.17318H13.8126C13.9359 4.17275 14.055 4.21217 14.1462 4.28365C14.2374 4.35513 14.2942 4.45347 14.3053 4.55924L14.3915 5.37166M8.93245 3.98307C8.93245 5.45583 7.69715 6.64974 6.17333 6.64974C4.64952 6.64974 3.41422 5.45583 3.41422 3.98307C3.41422 2.51031 4.64952 1.31641 6.17333 1.31641C7.69715 1.31641 8.93245 2.51031 8.93245 3.98307ZM15 6.50651C15 7.32657 14.2279 7.99136 13.2756 7.99136C12.3232 7.99136 11.5511 7.32657 11.5511 6.50651C11.5511 5.68645 12.3232 5.02166 13.2756 5.02166C14.2279 5.02166 15 5.68645 15 6.50651Z" stroke="#F5F5F5" stroke-width="0.8" stroke-linecap="round" stroke-linejoin="round"/>
</svg>
